<svg width="22" height="22" viewBox="0 0 22 22" fill="none" xmlns="http://www.w3.org/2000/svg">
<path d="M11 19.25C15.5563 19.25 19.25 15.5563 19.25 11C19.25 6.44365 15.5563 2.75 11 2.75C6.44365 2.75 2.75 6.44365 2.75 11C2.75 15.5563 6.44365 19.25 11 19.25Z" stroke="white" stroke-width="1.375" stroke-linecap="round" stroke-linejoin="round"/>
<path fill-rule="evenodd" clip-rule="evenodd" d="M12.2161 10.3577L15.125 10.3577C15.5047 10.3577 15.8125 10.6655 15.8125 11.0452C15.8125 11.4249 15.5047 11.7327 15.125 11.7327L12.1637 11.7327C11.9202 12.1186 11.4901 12.375 11 12.375C10.2406 12.375 9.625 11.7594 9.625 11C9.625 10.4911 9.90151 10.0467 10.3125 9.80895L10.3125 6.00354C10.3125 5.62384 10.6203 5.31604 11 5.31604C11.3797 5.31604 11.6875 5.62384 11.6875 6.00354L11.6875 9.80895C11.9111 9.93832 12.095 10.1289 12.2161 10.3577Z" fill="white"/>
</svg>
