<svg width="46" height="46" viewBox="0 0 46 46" fill="none" xmlns="http://www.w3.org/2000/svg">
<path d="M17.375 23C17.375 19.8934 19.8934 17.375 23 17.375C26.1066 17.375 28.625 19.8934 28.625 23C28.625 26.1066 26.1066 28.625 23 28.625C19.8934 28.625 17.375 26.1066 17.375 23Z" fill="url(#paint0_linear_179_321)"/>
<path fill-rule="evenodd" clip-rule="evenodd" d="M24.4062 6.125C24.4062 5.34835 23.7767 4.71875 23 4.71875C22.2233 4.71875 21.5938 5.34835 21.5938 6.125V8.53592C14.6909 9.19878 9.19878 14.6909 8.53592 21.5938H6.125C5.34835 21.5938 4.71875 22.2233 4.71875 23C4.71875 23.7767 5.34835 24.4062 6.125 24.4062H8.53592C9.19878 31.3091 14.6909 36.8012 21.5938 37.4641V39.875C21.5938 40.6516 22.2233 41.2812 23 41.2812C23.7767 41.2812 24.4062 40.6516 24.4062 39.875V37.4641C31.3091 36.8012 36.8012 31.3091 37.4641 24.4062H39.875C40.6516 24.4062 41.2812 23.7767 41.2812 23C41.2812 22.2233 40.6516 21.5938 39.875 21.5938H37.4641C36.8012 14.6909 31.3091 9.19878 24.4062 8.53592V6.125Z" fill="url(#paint1_linear_179_321)" fill-opacity="0.2"/>
<defs>
<linearGradient id="paint0_linear_179_321" x1="23" y1="17.375" x2="23" y2="28.625" gradientUnits="userSpaceOnUse">
<stop stop-color="#4276FC"/>
<stop offset="0.0001" stop-color="#3D73FF"/>
<stop offset="1" stop-color="#1844B5"/>
</linearGradient>
<linearGradient id="paint1_linear_179_321" x1="23" y1="4.71875" x2="23" y2="41.2812" gradientUnits="userSpaceOnUse">
<stop stop-color="#4276FC"/>
<stop offset="0.0001" stop-color="#3D73FF"/>
<stop offset="1" stop-color="#1844B5"/>
</linearGradient>
</defs>
</svg>
