<svg width="22" height="22" viewBox="0 0 22 22" fill="none" xmlns="http://www.w3.org/2000/svg">
<path d="M2.75 11.9167V12.65C2.75 15.3998 2.75 16.7747 3.45027 17.7385C3.67643 18.0498 3.95017 18.3236 4.26145 18.5497C5.22529 19.25 6.6002 19.25 9.35 19.25H12.65C15.3998 19.25 16.7747 19.25 17.7385 18.5497C18.0498 18.3236 18.3236 18.0498 18.5497 17.7385C19.25 16.7747 19.25 15.3998 19.25 12.65V11.9167M2.75 11.9167V11.9167C2.75 10.2082 2.75 9.35399 3.02911 8.68016C3.40125 7.78172 4.11506 7.06792 5.01349 6.69578C5.68732 6.41667 6.54155 6.41667 8.25 6.41667H13.75C15.4585 6.41667 16.3127 6.41667 16.9865 6.69578C17.8849 7.06792 18.5987 7.78172 18.9709 8.68016C19.25 9.35399 19.25 10.2082 19.25 11.9167V11.9167M2.75 11.9167H19.25M9.16667 9.16667H12.8333M7.33333 6.41667V6.41667C7.33333 4.39162 8.97496 2.75 11 2.75V2.75C13.025 2.75 14.6667 4.39162 14.6667 6.41667V6.41667" stroke="white" stroke-width="1.375" stroke-linecap="round" stroke-linejoin="round"/>
</svg>
