<svg width="22" height="22" viewBox="0 0 22 22" fill="none" xmlns="http://www.w3.org/2000/svg">
<path d="M11.0001 2.75C6.44376 2.75 2.74997 6.41667 3.66678 11C4.27662 14.0487 7.31988 16.8947 9.28941 18.4587C9.93313 18.9698 10.255 19.2254 10.7548 19.2929C10.8933 19.3116 11.1069 19.3116 11.2455 19.2929C11.7452 19.2254 12.0671 18.9698 12.7108 18.4587C14.6804 16.8947 17.7238 14.0488 18.3334 11C19.25 6.41667 15.5565 2.75 11.0001 2.75Z" stroke="white" stroke-width="1.375" stroke-linejoin="round"/>
<path d="M13.75 10.2208C13.75 11.7396 12.5188 12.9708 11 12.9708C9.48122 12.9708 8.25 11.7396 8.25 10.2208C8.25 8.70205 9.48122 7.47083 11 7.47083C12.5188 7.47083 13.75 8.70205 13.75 10.2208Z" stroke="white" stroke-width="1.375" stroke-linejoin="round"/>
</svg>
