<svg width="46" height="46" viewBox="0 0 46 46" fill="none" xmlns="http://www.w3.org/2000/svg">
<path fill-rule="evenodd" clip-rule="evenodd" d="M23.2828 5.85754C23.0946 5.84127 22.9054 5.84127 22.7172 5.85754C22.1384 5.90761 21.6119 6.15159 21.1219 6.37866L21.0008 6.43468L5.53699 13.5529C5.04276 13.7804 4.72411 14.2726 4.71882 14.8166C4.71352 15.3607 5.02253 15.859 5.51223 16.0961L20.9166 23.5537L21.0428 23.6151C21.5519 23.8633 22.0991 24.13 22.7045 24.1847C22.9011 24.2025 23.0989 24.2025 23.2955 24.1847C23.9009 24.13 24.4481 23.8633 24.9572 23.6151L25.0834 23.5537L38.4688 17.0735V33.0312C38.4688 33.4178 38.4679 33.6355 38.4563 33.799C38.4492 33.8995 38.44 33.9403 38.4369 33.9511C38.4264 33.9782 38.4134 34.0042 38.398 34.0288C38.4054 34.017 38.3962 34.0418 38.288 34.1356C38.1642 34.243 37.9905 34.3743 37.6813 34.6062L34.8125 36.7578C34.1912 37.2238 34.0653 38.1052 34.5313 38.7265C34.9972 39.3479 35.8787 39.4738 36.5 39.0078L39.3688 36.8562L39.4848 36.7695C39.9529 36.4204 40.456 36.0453 40.7864 35.5141C40.8936 35.3417 40.9845 35.1598 41.0581 34.9706C41.2848 34.3876 41.2831 33.76 41.2815 33.1761L41.2813 33.0312V14.8303C41.2813 14.2813 40.9617 13.7825 40.463 13.5529L24.9992 6.43468L24.8781 6.37866C24.3881 6.15159 23.8616 5.90761 23.2828 5.85754ZM38.4358 33.9542C38.4358 33.9545 38.4362 33.9536 38.4369 33.9511L38.4358 33.9542Z" fill="url(#paint0_linear_173_1190)" fill-opacity="0.2"/>
<path d="M35.9527 29.8453V21.2193L25.2176 26.4492C24.2516 26.9198 23.7686 27.1551 23.2551 27.2018C23.0856 27.2172 22.9152 27.2172 22.7458 27.2018C22.2322 27.1551 21.7492 26.9198 20.7832 26.4492L10.0481 21.2193V29.8453C10.0481 30.4823 10.0481 30.8008 10.1712 31.0754C10.2117 31.1656 10.2616 31.2513 10.32 31.3311C10.4979 31.5738 10.7748 31.7312 11.3286 32.0459L21.7496 37.969L21.7497 37.969C22.2912 38.2768 22.562 38.4307 22.8553 38.4612C22.9518 38.4712 23.049 38.4712 23.1455 38.4612C23.4389 38.4307 23.7097 38.2768 24.2512 37.969L34.6722 32.0459C35.226 31.7312 35.5029 31.5738 35.6808 31.3311C35.7392 31.2513 35.7891 31.1656 35.8296 31.0754C35.9527 30.8008 35.9527 30.4823 35.9527 29.8453Z" fill="url(#paint1_linear_173_1190)"/>
<defs>
<linearGradient id="paint0_linear_173_1190" x1="23.0003" y1="5.84534" x2="23.0003" y2="39.2891" gradientUnits="userSpaceOnUse">
<stop stop-color="#4276FC"/>
<stop offset="0.0001" stop-color="#3D73FF"/>
<stop offset="1" stop-color="#1844B5"/>
</linearGradient>
<linearGradient id="paint1_linear_173_1190" x1="23.0004" y1="21.2193" x2="23.0004" y2="38.6799" gradientUnits="userSpaceOnUse">
<stop stop-color="#4276FC"/>
<stop offset="0.0001" stop-color="#3D73FF"/>
<stop offset="1" stop-color="#1844B5"/>
</linearGradient>
</defs>
</svg>
